<?xml version="1.0" encoding="utf-8"?>
<svg xmlns="http://www.w3.org/2000/svg" xmlns:xlink="http://www.w3.org/1999/xlink" style="margin: auto; background: none; display: block; shape-rendering: auto;" width="200px" height="200px" viewBox="0 0 100 100" preserveAspectRatio="xMidYMid">
<g transform="rotate(0 50 50)">
  <rect x="43.5" y="23.5" rx="6.5" ry="6.5" width="13" height="13" fill="#614e98">
    <animate attributeName="opacity" values="1;0" keyTimes="0;1" dur="0.6622516556291391s" begin="-0.5886681383370125s" repeatCount="indefinite"></animate>
  </rect>
</g><g transform="rotate(40 50 50)">
  <rect x="43.5" y="23.5" rx="6.5" ry="6.5" width="13" height="13" fill="#614e98">
    <animate attributeName="opacity" values="1;0" keyTimes="0;1" dur="0.6622516556291391s" begin="-0.515084621044886s" repeatCount="indefinite"></animate>
  </rect>
</g><g transform="rotate(80 50 50)">
  <rect x="43.5" y="23.5" rx="6.5" ry="6.5" width="13" height="13" fill="#614e98">
    <animate attributeName="opacity" values="1;0" keyTimes="0;1" dur="0.6622516556291391s" begin="-0.44150110375275936s" repeatCount="indefinite"></animate>
  </rect>
</g><g transform="rotate(120 50 50)">
  <rect x="43.5" y="23.5" rx="6.5" ry="6.5" width="13" height="13" fill="#614e98">
    <animate attributeName="opacity" values="1;0" keyTimes="0;1" dur="0.6622516556291391s" begin="-0.36791758646063283s" repeatCount="indefinite"></animate>
  </rect>
</g><g transform="rotate(160 50 50)">
  <rect x="43.5" y="23.5" rx="6.5" ry="6.5" width="13" height="13" fill="#614e98">
    <animate attributeName="opacity" values="1;0" keyTimes="0;1" dur="0.6622516556291391s" begin="-0.29433406916850624s" repeatCount="indefinite"></animate>
  </rect>
</g><g transform="rotate(200 50 50)">
  <rect x="43.5" y="23.5" rx="6.5" ry="6.5" width="13" height="13" fill="#614e98">
    <animate attributeName="opacity" values="1;0" keyTimes="0;1" dur="0.6622516556291391s" begin="-0.22075055187637968s" repeatCount="indefinite"></animate>
  </rect>
</g><g transform="rotate(240 50 50)">
  <rect x="43.5" y="23.5" rx="6.5" ry="6.5" width="13" height="13" fill="#614e98">
    <animate attributeName="opacity" values="1;0" keyTimes="0;1" dur="0.6622516556291391s" begin="-0.14716703458425312s" repeatCount="indefinite"></animate>
  </rect>
</g><g transform="rotate(280 50 50)">
  <rect x="43.5" y="23.5" rx="6.5" ry="6.5" width="13" height="13" fill="#614e98">
    <animate attributeName="opacity" values="1;0" keyTimes="0;1" dur="0.6622516556291391s" begin="-0.07358351729212656s" repeatCount="indefinite"></animate>
  </rect>
</g><g transform="rotate(320 50 50)">
  <rect x="43.5" y="23.5" rx="6.5" ry="6.5" width="13" height="13" fill="#614e98">
    <animate attributeName="opacity" values="1;0" keyTimes="0;1" dur="0.6622516556291391s" begin="0s" repeatCount="indefinite"></animate>
  </rect>
</g>
<!-- [ldio] generated by https://loading.io/ --></svg>